<svg xmlns="http://www.w3.org/2000/svg" width="926" height="636" fill="none"><path fill="#D2D3D4" fill-rule="evenodd" d="M552 0h76l5 2 1-2h2l4 4V2l-3-2h77l6 4c4-2 7-1 10 3 1-3 2-3 3 1l31 8h-1c3 1 6 3 8 7h6c1 0 2 2 1 4l-11-4h-5l2 1c-2 1-2 1 0 2l4 2 1 1c1 2 4 3 7 3l1 4 7 1c-8 0-15-1-21-4l-2 1-9-6-3 2c-4-3-8-3-12-1l-6-5-5 1c-2 2-5 3-8 2v-3c-3-1-4 0-3 3l16 6h-8l-27-7-1-2c-3 2-6 2-9 0l-2 1-5-3h-9l-21-7c-8 0-14-1-21-3l-4 4-6-3 2-1-10-2h-6l1-1-3-1c-3 0-5 1-8 3l-3-3-20-1-4-4-2 2c-1-2-2-2-3 0-3-4-6-4-9-1l-5-2 4-2Zm91 4c1-2 3-1 5 0h-5Zm6 2c-1-1 0-2 1-2l3 1-4 1Zm5-1 12 3-6 2-6-5Zm14 6c0-2 1-2 3 0h-3Zm21 7-7-2 2-2-1-1h8c1 0 2 1 2 3l1-2 4 3 14 5c-2 1-3 2-3 4l-4-3-4-4-4 2-8-3Zm59 0c3-1 3 0 0 2v-2Zm4 1v2-2ZM379 4c4 2 9 2 14 0l9 3 3-2 2 2 61-4v4c5-1 10 0 15 1l5-2 2 2h7l-6 2h19c-1-2-1-3 1-4l7 3h-6v3c4-1 7 0 10 4 2-2 4-1 6 1 2-3 5-3 7 0l1-3 6 1c-2 1-2 2 0 3h-5c-3 1-3 2 1 2-1 1 0 2 1 3-2 2-3 1-2-1-3 0-4 1-4 3-4-1-6-3-8-5l4-2-17-2-5 2 7 1-4 2c1 1 1 2-1 2 3 2 6 2 10 1 3 2 5 2 9 1v4c1-1 3 0 5 2v-2h4c1 2 3 2 6 1l4 2c2-1 2-2 0-3l7-1c1 0 2 0 3 2-2 0-3 1-3 3 6 2 13 3 20 3l9 3-4 3c-1-1-2-2-1-3-2-1-4 0-5 2l-9-2h-14l-23-3c-3 5-5 5-6 0h-12l1 1c-3 1-5 1-6 3l16 4-7 2c-2 1-2 2 0 3-4-1-5 0-3 4-6 1-6 3 1 5 3-3 5-3 7 1 5-1 10-1 15 1l-10 2c-7-2-13-3-20-3l-6 2-12-1-1 2c2 2 4 2 6 0l4 4-2 1-15-3-1-1 7-2c-10-1-19-1-29 1-3-2-6-1-8 0l3 1v4l53 14 5-2 10 5c1-2 2-2 3-2l6 3c5 0 10 1 16 4l1-1 6 1 1 3 2-1 12 5 22 6 5 3h9l10 4c1-3 3-3 6 0h-3l1 1h6c-1 2 0 4 2 5h8l2 2 5-1 16 4c-1-3 1-5 4-5l14 3v2l-8 2 8 4 12-1c-2-1-2-1 0-1 3 1 6 1 8-1 1 0 2 1 1 2 2 0 4 1 6 4 2-1 2-1 1 1l9 1c2-3 5-3 7 1l1-2h4l2 1-3 2 1 1 11 3v-3l3-1 4-1 15 7c2-2 4-2 6 1 2-2 4-2 7 0l-1 1 3 4c10-1 18 3 25 10 1-2 2-2 3 0v2l13 4c1-1 3-2 5-1v3c2-1 4 0 7 1 0 1 1 2 3 2 6 1 12 4 18 9v4c-10 2-19 1-27-3l-7 1-19-5h-3l7 3c3 3 7 6 12 8l3 3c-8 0-15-2-22-3h-14c8 1 16 2 25 5l-1 1c2 2 5 3 9 4-5 2-10 4-15 4l-54-6c-4 1-6 3-9 5-3-2-7-3-10-3 2 1 4 3 3 6-2 3-4 5-8 6l-10-7c-2-2-3-2-4 0l7 8-1 1 8 2c13-1 26-4 39-7 4 0 9 1 13 3l5-5c7 4 6 7-3 8l2 2 1 6c7-2 13-1 20 3 2-1 3-1 4 2l14-3h9l24 3c3 1 6 3 8 6v2c-5 2-9 2-13 1l-20 2-11 3c-3 2-2 4 2 5l-2 1 8 3-26 6 15-1 4 3 5-1c2 0 2 1 1 3-3 1-5 2-6 4-12 4-24 7-37 9-2-1-4-1-5 2l-2-1c-1 1-3 2-3 4l-3 2-6-1c-3 2-4 2-4-1l5-1h-7c1 2 0 3-2 4l-74 15v3l7-1 4 1c3-3 6-4 9-2l11-3c5 0 9-1 14-3l1 2h8c3-3 7-3 11-1v-3l3 3c0-2 2-3 4-3h19c5-3 11-2 16 3l2-2h5l2 2-16 3c2 2 5 2 7 1 2 0 2 1 0 2 5 2 11 3 17 3-7 3-13 4-20 3l-5 2 2 4 1-3c1-1 2 0 3 2 9-2 19 0 28 4l13 12c3 6 5 13 4 21 2 4 2 8-2 11l-2-1-5 5c1 1 2 2 1 3l-22 14c-9 3-18 4-26 5l-6 2c2 1 2 2 0 4-2-2-2-3-1-4h-46l-2-2h-20c-3 0-3 1-1 3-1 2-3 2-5 1-4 0-7 1-10 3 2 1 2 2 0 3-10 0-19 2-28 5-5-2-10-2-15 0h12l-1 1-23 2 43 2c-20 0-39 1-59 3l-20-2c-18 0-37 1-55 3l-18 1c2 2 1 3-2 3l7 2v3c19-1 39-2 59-1 1 0 2 1 2 3l3-2 1 2c2-1 5-2 7-1l2 1-3 1 9 2 4-1h19l9 7-3 3-39 3-1 1 5 1-12 4 1 4c1-1 3 0 5 1 1 0 2 1 1 2h-39c-7 0-15 1-21 4l-2-1-6 3 7 1c2-3 4-4 7-3-2 1-1 2 1 3l-4 2h-10l-3-4-3 2-1-2c-4 2-7 2-11 0 0 1 0 2 2 2l-3 1c3 4 7 5 12 3l8 2c6-2 12-2 18-2s13 1 19 3l-3 1-21 2c-6-2-13-2-19-1l4 1c-4 1-7 0-10-1-2 2-4 4-7 4 91 2 182-11 269-39l2 2 2-2h10c2-3 5-4 9-3l-6 3c2 1 2 2 0 3l-2-2-10 4c-4 0-8 1-12 4l-2-1c-1 2-3 3-5 2-1 1-2 2-3 1l-6 3c-2-2-4-1-4 2l4-1c2 1 4 2 7 1-2-2-2-2 0-2 2 2 3 2 6 0-3-1-3-2 0-2l3 2 8-2 2 2c1-3 4-4 8-5 2 2 5 2 8 0l2 1 10-5 2 2c3-3 6-4 9-2l6-4c1 0 2 2 1 4-9 5-20 10-30 13 2 1 2 2-1 3-2-2-4-1-5 1l-2-2-4 4h-6l-12 5 13-3 3 1c5-3 10-3 16-3l-3 3 6-1h5l-1 2c-4 0-8 1-11 3l-1-3-1 3-10 4-2-1-5 4-1-1-9 5h-8l-9 4-21 5c-7 3-13 5-20 6 2 1 1 2-1 3-1-2-2-2-3 0l-2-2-13 3-13 5 7 1c2-2 3-3 5-3 5 2 9 1 13-3 2-1 4 0 5 2l9-3 1 1 5-2c-2-1-2-1 0-1l2 1c7-3 14-5 22-6l4-2 11-1 11-4 2 2c1-4 3-5 7-3l13-5 1 1c3-2 5-4 9-4l11 1 1-2c2 1 4 0 6-1 1 0 2 1 1 3l-2-1-4 3c-3 0-6 1-8 3l2 3 6-3 4 3c2-3 4-3 7 0l6-4v2l-12 6-18 5c-3-1-4 0-3 3-6 0-10 2-13 6l-5-1-6 3v4c-3 0-5 0-6 2-2-3-4-3-5 0l3 2c5-2 11-3 17-3l-5 3c-10 1-19 3-27 7h-6l-4 3c-3 0-5 1-7 3l-2-1-26 8-7-1-12 4-2-1c-4 0-6 2-8 5-2-2-3-1-4 1l4 2 2 7c7-5 9-4 7 5 1 1 2 3 1 6l-8 7c2 0 3 2 3 4l-2 6c-2 1-3 2-3 5-16 8-33 14-50 18l-9-1-6 3-7-1c-1 1-2 2-3 1l-14 1-3 2-47-1c-2 0-3 1-3 3l-2-3-3 2c-3-2-5-3-8-3l-17 1-2-1c1-1 0-2-1-2h-22c-3-2-7-2-10 0l-2-2h-26c-1 0-2 1-1 2l-5 2c-1-2 0-3 1-4-3-1-6-1-8 1l-5-2c-2 2-4 3-6 1l-5-1c1-2 3-2 4 0l5-2-3-1h-14c-3 0-3 1-1 3l-2 2-5-3 4-1-7-5c-1-1-2 0-3 1-1-3-3-3-4 0l-4-3-1 4c2 2 5 2 8 1l3 2c-5 1-9 0-12-1l-5 2-9-3-4 2-11-4v-1l-2 2-6-2c0-3-2-5-3-6l5-2c2 2 5 3 9 2l-1-4c2 0 5 0 8 2-2 1-1 2 1 3l14 2-1 4h5l-3-1v-4c1-1 2 0 4 1l2-2c-3-1-4-3-2-5l2 3 1-3c8 3 8 5 0 7v1c4-2 8-1 12 1l7-1-3-2 4-4c1 3 2 3 3-1-7-2-13-2-18 0 0-5-2-7-6-5l-10-3-4 1v-3l-15-3c-2 1-3 0-4-1l-3-1 3-3 1 3 6-1 34 4v-3h4c-1 1 0 2 1 4h7c2-1 2-1 1-2l5-2-5-3-2 1-3-3c-4 1-4 0-1-2 2 2 4 2 4-1v-1l7-7c-2 0-2-1-3-2-2 0-4 0-6 2 0-3-1-4-3-2-2-2-3-3-5-1l-4-2 6-2c8 3 16 3 24 1l32 1 2-3c-3-1-5 0-7 1l-3-2c-2 2-4 2-6 0-5 3-9 3-14 1l-2 1c-2-2-3-3-3-5-2 2-4 2-6 1l2-2h-5l-1 3c-2-2-3-2-5 0l-13-3 1-1c-2-1-4-1-5 1 0-3-1-3-2-1l-5 1 4 2-2 1-15-3 11-1-7-2h-36c-6 0-12 1-18 4-3-1-3-1 1-2l-3-1-5 4c-3-2-3-3 1-3-3-3-5-3-7 1l-3-3c-1 1-3 2-4 1-4 2-8 2-12 0l-3 2-29-1c1 1 1 2-1 3-4-5-7-4-9 3v-3c-3-1-5 0-7 2l-1-3h-2v2l-5-5c-3-1-6 0-8 2l-2-1-2 3c-4-2-8-3-11-2l5-2c2 1 4 1 6-1h-13l1 4c-3 0-5 0-6 2l-4-3c-8 2-15 0-20-4h-13l1-1-4-3-1 1-13-3c-5-4-10-6-15-8v-2h-14c-2-1-3-2-1-3l-8-1-3-3c-9-1-16-5-20-11l15-2 15 2 11 3 2-1c4 2 9 2 14 1l-6-1-16-11c7 0 14 0 21 2l10-2c-8 0-15-1-21-3v-2c-10-2-10-4 0-6 13-2 27-1 41 1l10-2c3 0 7 1 10 3l9-3c5 2 11 3 18 2 3-3 6-3 10 0l14-2-24-3-2-4-8 2c-7-3-14-4-22-4l1-1 30 2 7-3-5-1h-8l2-4 4 1 10-2 2-2h-10l-6-3c2-1 3-2 2-3h-9l-9-5-2 1-12-3h-10l-3 2-8-3 4-4-3-1c-1 1-2 2-3 1l2-2c-2-1-3-2-2-3-4-1-7-2-9-4l2-2h-5l-2-4 1-2c-2-2-2-4-2-6l14-8 11 1c-3-4-2-7 3-9l4-1 8 6 7 1-3-2-5-9c-16-1-32 2-47 7l-13-3-6 4c-2-2-4-3-5-6l8-3c-2 0-3-1-3-2 0-4 2-6 5-7h-4c0-4-1-4-2-1l-2-1c-4 0-7 1-10 3l-2-1v-1l-7 2-32-10c0-2 1-3 3-3l24-2 3 1c4-2 9-4 14-4l-12-3-10 4-3-1c4-3 3-4-1-3l-1-2c2-2 5-3 9-4l-4-1c-2-1-2-1 0-2 3-1 6-1 9 1l4 3 20-5-18-4 1-1c-3-3-5-3-6 0l-2-3c2-3 5-4 9-2l2-2 15-2-1-2 3 2 14-4-7-2 5-2-11-1 12-2c-1 3 0 3 2 0l11-1v2l-9 2 1 1 22-3-12-1c1-2 3-3 6-2l10-3 7 1 11-4 24-4c-2-1-2-1 0-1l2 1 15-4-1-1 6-1-1-1-15 1-30 6c-8-2-15-1-22 2l-2-2-5 3-7-1-19 3-11-5c-1 2-3 2-4 0h-3c-2-1-2-1 0-2l16-2-4-2h-6l3-1-6-2-4 1-1-3-7 1 7-3 7-1c3 2 6 2 9 0l9 2c1-3 3-4 6-2l8-4 6 2c1-2 3-2 6-2v-4l7-1-1 1 4 1v-4l-16 1-2-1c4-3 8-4 13-2 1-2 3-3 6-1l6-2 2 1c0-2 1-3 3-3l3 3c4-3 9-5 15-6l3 1 10-4 18-2 5 1-4-21 1-3 7-7-2-1 4-4c-7-4-14-5-21-3l-20-3c-1-5 1-7 5-6-3-2-3-3 1-4l-10 1-4-1c0-2 1-2 3 0 5-2 10-2 16 0 2-1 3-2 2-4 1-2 2-2 4 0 4-2 8-3 13-3-5-2-5-3-1-4l8-1 2 1 16-4c4 1 8 1 12-1h-9l6-2 1 1 17-2-19-3 20 1 6-2c38 1 76-1 113-5h-15l3-1-9-4-56-2c-2 0-3 0-4 2-2-3-3-4-4-1-2-2-3-2-5 0l-1-1 3-3-33-3-7-4c2-2 5-3 8-3l-2-1c2-1 3 0 5 2l3-2 34-3-10-1 10-3v-4l-7-2c7-2 15-3 23-3l-3-2c2-1 3 0 5 2 14 2 29 0 43-5h-5l-9 2c1-1 0-3-1-3l2-1h13l1 3c2-2 3-1 5 1 3-3 6-3 10 0 2-1 3-2 1-3h-3c3-3 3-5-1-5-4-1-6 0-9 2-8-3-17-3-25 0l-2-2-9 1-6-3 3-2 35 1v-3l7 2c4-3 9-4 15-4-87-3-175 9-258 36l-2-1c-4 2-9 3-13 2-2 0-4 1-5 3l-2-2c-3 3-6 4-9 3 4-4 10-5 16-6l2-2 1 2 3-3 1 1 9-4 1 1c1-3 3-3 5-2 1-2 2-3 4-1l5-3c3 1 4 0 6-2l7-2-4-2c-5 0-10 1-14 3-2 1-2 1 0 2l-2 1-1-2-4 1c2 1 2 2 0 3-3-3-5-3-8 0l-9-1-1 3c-8-1-16 0-22 4h-5l-12 4c-2 0-3 1-4 3l-1-1c-1-2-2-3-1-4 3-3 7-4 11-5-2 0-3-1-1-2l23-7c-3-1-3-2 0-2h8l5-2 15-7c-10 0-20 2-29 6l-2-1 7-7 11-4 1 3c-3-1-4 0-5 2l9-3-3-1 4-4 1 1 10-5 12-3 1 1c12-3 24-7 35-12l17-4-3-3c-5 1-10 2-15 5l-6-1c-6 3-13 4-19 5l-4 3c-5-1-10-1-15 2h-7l-1 3-2-2-4 4-3-1-11 3-14 6-1-2H89c-3 2-6 3-9 2 5-3 11-6 18-8-7-2-14-2-20 1l-3-2-6 4c-2-1-2-2-1-2 6-4 12-6 18-8l2 1c2-2 4-4 6-4h8l3-4c5-1 9-3 13-6l6 2 2-4h4v-4l6-2c1 2 3 2 5-1l-3-1-11 1-6 3c-2-1-2-2 0-2l5-3 12-3 1 1 14-6v1l3 2 5-3-2-4 1-3-5-5c-1 2-2 2-4 0-1-3 0-4 2-5l1 3 5-5h-5l-1-9-6 3-2-3 3-6c-3-2-3-3-1-5s4-5 7-6c1 2 2 2 2-1 3-1 3-2 0-3v-3l7-10c20-8 40-14 62-16l10 1c1-2 2-2 4-2h13l25-4 6 2c12-2 25-2 37 0 5-3 11-3 17 0 1-2 3-3 6-3v3l3-1c-2-1-1-2 1-2s2 1 0 2c6 0 13 0 19 3 1-2 2-2 4-2 3-1 6 0 9 1Zm97 4 1 3-7-1 6-2Zm-23 2c-3 2-6 2-8 0l3-1 5 1Zm38 0-2 2c-4-3-4-4 2-2Zm-34 2-2-2c4-1 5 0 2 2Zm24-1h2-2Zm-30 5-10-1 7-2c2 0 3 1 3 3Zm6-3 37 1 1 2h-21l-2 4c-2-1-3-2-1-3l-2-2-7 1c-1 4-2 4-2 0h-9c1-2 3-3 6-3Zm-9 5 6 1c-1 4-3 5-6 2v-3Zm7 0c3-1 3 0 1 2l-1-2Zm49 3h4v3c-3 0-4-1-4-3Zm-336 2c0-2 1-2 3-1-1 2-2 2-3 1Zm289 3v-4c1-1 3 0 5 1-3 0-5 1-5 3Zm17-1c-2-2-4-2-6 0l4 1c-2 1-3 2-3 4-4-2-6-5-6-8l12 2-1 1Zm41 2c1 0 2 0 1 2l-1-2Zm-63 4 3 2c-4 1-5 0-3-2Zm32 5c-2-1-3 0-3 1-1 2 0 4 1 6-3 1-5 0-6-1v-3l-12 1c0-4-1-6-3-7 6-2 13-2 20 0-3 0-3 1-1 3l3-3 1 3Zm-25-2 2 1c-2 1-2 2 0 3l-5 4v3c-1-2-2-2-3 0-1-3-2-3-3-1l-1-4-2 2-4-5 13-1 3-2Zm25 2c1 1 2 0 2-2 2-1 4 0 7 1l-3 1-1 3c-1-6-2-6-3 0l-2-3Zm17 0c1-2 3-2 6-1-2 1-4 2-6 1Zm-69 1 5 1-3 1-2-2ZM151 48v-3l4-3 2 1-6 5Zm12 30 2 3c-3 0-4-1-2-3Zm-10 13 2 2 4-4 7-1c2 1 2 3 2 6-1-3-2-3-3 0-2-1-4-2-6-1-5 1-10 2-14 1v-2l8-1Zm389-2 2 1c-2 1-2 0-2-1Zm-278 5c1-1 2 0 4 1-2-1-3 0-4 2v-3Zm7 0c1 0 2 0 1 2l-1-2Zm-18 3c1-2 3-2 6 0h-6Zm-17 1c1-1 2 0 3 1l-17 5c-6 0-11 1-16 4l-1-3 7-4c3-1 6-1 9 1l15-4Zm11 0c-1 1-3 2-4 1 1-1 2-2 4-1Zm-135 19c2 0 1 1-1 3l1-3Zm-5 2c1 0 2 0 1 2l-1-2Zm139 10c3-2 7-2 12-2l-12 2Zm443-2c3-1 6 0 9 3h-3l-6-3Zm-443 2c-4 1-8 2-12 1l12-1Zm148 1 19 1-21 2-2-1 4-2Zm-166 1h5l-12 4-1-1-15 2 23-5Zm208 4c2 0 2 1 0 3l-16-2 16-1Zm6 0 8 2c-4-1-7 0-10 1 0-2 0-3 2-3Zm297 0c1-1 2 0 3 1-2 1-3 0-3-1Zm-541 3 5-2 1 1-6 1Zm-80-1c-2 1-4 2-6 1 1-1 3-2 6-1Zm17 1c0-2 1-2 3-1-1 2-2 2-3 1Zm266 2c-4-2-8-3-11-2 6-2 13-2 20-1l-9 3Zm-203-2c-5 2-11 3-16 3 5-2 10-3 16-3Zm-22 5 4-1 3 2c-4 2-6 2-7-1Zm-7 1c3-1 3 0 1 1l-9 3v-1c2-2 5-3 8-3Zm139 13c1-2 3-2 6-1l-5 2-1-1Zm-43 11c0-2 1-2 3 0h-3Zm163 24h-8l1-1c-3-2-5-2-6 1l-6 2h-6c-2-2-2-3-1-4h23c4-3 9-3 15-3-2 1-2 2 0 3h-7c-2 0-4 0-5 2Zm-46-1c1-1 2 0 3 1-2 2-4 2-6 0l3-1Zm11 0c2-1 5 0 8 1l-8 1v-2Zm-28 1h12c-5 1-10 2-14 1l2-1Zm-78 1 11 2-16-1 5-1Zm423 23h4-4Zm6 4c1-1 2 0 1 1-4 1-4 0-1-1Zm74 16c6-1 7 0 1 2-2 0-3-1-1-2Zm-373 4c-2 2-3 2-4-1l4 1Zm-68 8c1 0 2 0 1 2l-1-2Zm-128 28-6 2c-2-2-4-1-5 1l-2-2 6-3 7 2Zm8-1-4 2c-1-1-3-2-4-1 2-2 5-2 8-1Zm-34 3c-5 1-10 2-15 5l-1-2-9 2h-11l1-3c2-1 4-2 7-1l1 2c3-3 7-4 12-3l7-2c2 0 3 1 3 3 1-1 3-2 5-1Zm8-2c1-1 2 0 1 1-5 2-6 1-1-1Zm72 13c0-2 1-2 2 0h-2Zm363 8c3-1 6-2 9-5 6 0 12-1 17-3l1 3c-3 0-5 1-6 3h-9l-12 2Zm114-8c1-1 2 0 1 1-4 1-4 0-1-1Zm-484 2c-3 1-5 1-7-1 2-1 4-1 7 1Zm-15 0c1-1 2 0 4 1h-5l1-1Zm-5 1c-6 1-12 3-17 6-4-2-8-1-12 2l-3-1v-2c3-2 7-4 11-4l4 2c5-2 11-3 17-3Zm379 4c3 0 3 1 1 2h-7l6-2Zm-13 2c2-1 4 0 6 1l-3 1-3-2Zm129 0c2 0 2 0 0 2v-2Zm23 2c-3-1-4 0-2 2l-2 2c-1-5-2-5-4-1-2-3-1-5 2-5 2 0 4 0 6 2Zm-640 0h-4 4Zm626 0c1 0 2 1 1 3-1-1-2-2-1-3Zm-4 1c1 0 2 1 1 3-1-1-2-2-1-3Zm-82 10c1 2 3 2 4 0l2 1c-4 3-8 3-11 1l5-2Zm13 1c-1 2-1 2-2 0h2Zm-37 2 6 1-3 1-3-2Zm7 1c1-2 3-2 5-1-2 2-4 2-5 1Zm-10 0 2 1h-9l7-1Zm6 13 2 2c2-4 6-5 11-3l-2 3c-2-2-3-3-4-2l-1 3h-11l-3-3h1l5 3c1-2 0-2-1-3h3Zm-35 5c2-1 3 0 2 2l-6 1 4-3Zm-51 22c3-2 7-3 12-3l-6-1-8-5c2-1 2-2-1-3s-5 0-6 1l2 1h-6l1-3c1 1 2 1 2-1h10l10-3 2 2c1-2 2-2 3 0 0-2 1-3 2-3 2 2 4 3 8 3v-3l11 3 5-2h15c-2-1-3-2-1-3l5-1h7l3 6 9 2-7 1c-2 3-3 3-2 0l-17 2c-3 1-3 2 1 3h-7c3-1 3-3-1-4h-1c1 4 0 5-5 4l-6 3c-1-3-2-3-3-1 1 2 3 3 5 2l4 2 14-1 4 3c3-2 6-2 9-1l-5 3-21-2-6 2-29-1-10-1 4-1Zm81-17-7 1c-1-1-2-2-1-3-1-2 2-1 8 2Zm0 0 3-2 2 2h-5Zm-527-1c2 0 2 1 0 2h-7l7-2Zm538 0c0 1 2 2 5 2-2 1-3 3-3 5-3 1-5 0-6-1l-2 2-4-2c3-3 6-5 10-6Zm-92 1 2 1h-6l4-1Zm-28 3c3-1 3 0 0 3-3-1-3-2 0-3Zm-17 5c-2 2-4 2-5 0l3-3v2l2 1Zm-41-1c2 0 2 1 0 3v-3Zm-381 3h-2c0-2 1-2 2 0Zm371 2c1-2 3-1 5 0h-5Zm62 0c0-1 1-2 3-1l-2 3c2 1 4 0 5-1l5 2h-15c-2-1-2-2 0-2 0-2 1-2 3-1-2 1-2 2 0 3 0-2 1-2 3-3h-2Zm24 0h-2 2Zm0 0 1-1 6 1h-7Zm-56 0c2-1 4 0 6 1h-8l2-1Zm130 0v2c-4-1-4-1 0-2Zm5 1 2 2 1-1 5 1-8 1v-3Zm-527 1c2 0 2 0 1 2l-1-2Zm410 0c2 0 2 0 1 2l-1-2Zm35 3 7 1-4 1-3-2Zm93 4 1-1 9 3c-3 1-5 0-7-1l-1 1-2-2Zm-479 12 2 1c-3 1-3 1-2-1Zm536 3c1-1 2 0 3 1h-4l1-1Zm-128 20c11-1 23 0 35 1h-37l2-1Zm-59 1 9 1-5 1-4-2Zm96 0h7l-7 2v-2Zm-147 1 1 3c2 0 5-1 7-3h12v3c-7-1-13 0-18 2l-6-1-12 3-6-3 6-1h7l9-3Zm21 0 9 1c-3 2-6 2-8 1l-1-2Zm17 0c2-1 4 0 6 1h-9l3-1Zm7 6 1 1-5 2-11-2 15-1Zm-308 23v-3h6l-1 3h-5Zm0 0h-12 12Zm-17 5-4-2c5-1 10 0 16 2-1-1 0-2 1-2 3 2 7 2 10 0l4 1c-2 1-2 2 0 3l8 2 6-3-3-2 7-1 8 2-5 3 2 5c-14-1-26-2-38-5l5-2-17-1Zm67-1 7 1c-4 2-7 2-10 0l3-1Zm492 8-1 1 4 1-7 2-4-3 8-1Zm-474 1v2-2Zm-37 1c9 2 19 2 29 1v3l-8 2h-22l-3-4c-4 1-8 1-11-1l15-1Zm499 1 1-1 5 2-11 2 7-2-2-1Zm-14 6c1-2 0-3-2-3l4-1 6 2-8 2Zm-3 1-9 3-1-1c0-1 1-2 3-2-2-1-1-2 0-2l7 2Zm-229 2c3-1 5 0 6 2l5-1-2 2h-25l12-1 4-2Zm219 0-10 2c3-2 6-2 10-2Zm66 5 8-4h5l-13 4Zm-76-3-11 3 11-3Zm-465 2c-2 0-4 0-5 2l-2-2c2-2 4-2 7 0Zm0 0c2-2 4-2 7 0h-7Zm13-1h7c3 0 3 1 1 3l-10-2 2-1Zm193 0 4 2-6-1 2-1Zm-172 2c3-2 7-2 11-1-4 1-8 2-11 1Zm212 3v2-2Zm4 1c4-2 8-2 13 0l-2 2-11-2Zm306 11c-1 1-2 2-3 1l3-1Zm-127 18c2 1 2 2 0 3l-2-1 2-2Zm-8 4h-6c2-2 4-2 6 0Zm100 1h4c-1 1-2 2-1 4-2-1-4 0-6 1l-3-2-6 4-2-1c-5 2-9 2-14 2l9-6 2 2 17-4Zm-31 6c3-1 3 0 0 2-2-1-2-1 0-2Zm-18 2 4 1c-3 0-4 1-5 3l-8-1 5-2c2 1 3 0 4-1Zm9 1c-1 2-1 2-2 0h2Zm-23 2c4 0 5 1 0 3l-2-2 2-1Zm-17 2 1 3c-2-1-4 0-6 1l-2-2 6-1 1-1Zm5 1h-2 2Zm-488 15 2-2c-2-1-2-2 0-2l5 1-7 3Zm-9-1c0-2 2-3 4-2l-4 2Zm43-1 2-1 8 2-3 1-7-2Zm157 1-2-2c1-1 1 0 2 2Zm22 0 2 1c-2 1-2 0-2-1Zm14 2 1-1 14 3-3 2c-4-1-8-2-11-1l-1-3Zm264 17-3 6c-1-3 0-5 3-6Zm-244 11c0 2 0 4 2 6h-7c-1 2-2 2-3 0l-3 1v-3h-3l1-9 5 1c-3 2-3 3 1 5l3-2 4 1Zm11-4v3c2-1 4 0 6 2l-11 2c-2 0-2 1-2 3-2-2-2-3 0-4l-2-1 5-4-1-2h2c0 2 1 2 3 1Zm8 5c0-2 1-2 3 0h-3Zm-39 0 3 4c-3 1-4 1-5-1 0-2 0-2 1 0l1-3Zm3 0c1 0 2 0 1 2l-1-2Zm-15 2c3 1 3 2-1 1l1-1Zm41 2v4c-3-2-3-3 0-4Zm-50 5c2 0 2 0 0 2v-2Zm37 1c2 0 3 2 5 5h-9c5-1 6-2 1-3l3-2Zm13 0 2 2c-2 0-3-1-2-2Zm-3 3c-1 2-2 3-4 2l4-2Zm-89 3c3 1 3 2-1 1l1-1Zm92 0 4 2-8 3v-3l4 1v-3Zm-103 4c0-2 1-2 3 0h-3Zm10 1-5-2h2c1 0 2 0 3 2Zm76-2 2 2c1 3 2 3 3 1h4c0-2 1-3 2-3l1 4c1-2 3-2 6-1-1 2-2 3-4 2l-5 2h-11l-10-3-5 1-5-2 3-1 15 2 2-2h3l-1-2Zm-56 5-9-1c3-2 6-1 9 1Zm75-1c8-1 8 0 1 3-3-1-3-2-1-3Zm3 5-2 2-8-2c0-3 2-3 3 0 2-2 4-2 7 0Zm-24 0c5-1 5 0 0 2v-2Z" clip-rule="evenodd" opacity=".1"/><path fill="#D2D3D4" fill-rule="evenodd" d="M754 218c1 0 2 0 1 2l-1-2Zm-235 27-2 1-8 1c-3-2-4-3-1-4l-4-2 1-1c3-1 7 0 10 1 2-3 3-3 5 0v-2l13-2 12 3c1-2 3-1 4 1 0-2 1-3 3-4l4 7 2-1c1 2 3 3 6 2l8 2-53-2Z" clip-rule="evenodd" opacity=".2"/><path fill="#D2D3D4" fill-rule="evenodd" d="m561 237 1 2 3-2h14c0 1 1 2 2 1l2 2c-5-1-10 0-15 3-3-2-5-2-6 1-3-1-3-2 0-3l-3-2 2-2Z" clip-rule="evenodd" opacity=".2"/><path fill="#D2D3D4" fill-rule="evenodd" d="M571 244c0-2 1-2 3-1-1 2-2 2-3 1Zm7 1 5 1h-7l2-1Zm-57 2c2-1 4 0 5 2 1-2 2-1 2 1 1-3 2-3 4-1-3 3-6 3-8 0-1 1-2 0-2-1-1 1-2 0-1-1Zm162 14c2-2 2-3-1-2-2-1-4 0-5 2-3-2-3-1 0 1-6 0-11 1-16 3-3-1-5-2-7-1l-1 1c-6 2-11 2-16 2v-1c-4 1-6 1-9-1-6-1-13 0-19 1l-1-3c24-2 49-5 73-9l2-2 12-2c7 1 14 0 21-3h7l3 1c-2 3-4 5-7 4-3 2-6 2-9 2l-9 3-4-4-7 2 1 1-5 3 3 1-5 2-1-1Zm-146-9-3-3h3l9 2c-3 1-5 0-7-1l-2 2Zm-16-2 2 1h-4l2-1Zm71 1c1-2 2-2 4 0h-4Zm9-1 2 1c-3 1-3 1-2-1Zm-70 2c0-2 1-2 2 0h-2Zm6 0h-2 2Zm183 3c1 0 2 0 1 2l-1-2Zm-184 1h4c-2 1-4 2-5 1l1-1Zm180 2c2-1 5 0 8 1l-13 6c-4 1-5 0-3-3l8-4Z" clip-rule="evenodd" opacity=".2"/><path fill="#D2D3D4" fill-rule="evenodd" d="m673 260 1 1h-4l3-1Zm10 1h-3c1-2 2-2 3 0Zm0 2h5l-7 3c-2 1-3 2-3 5h-11l-6-4 22-4Zm10 3c-2-1-3-1-2-2l2 2Zm0 0 2 2c-4 1-5 0-2-2Zm-42 3c1-2 2-1 3 1l-1 1-2-2Zm-456 57h11l2 2 9 2-31 2c4 0 7-2 9-6Zm24 0 6 3c-4 1-6 0-6-3Zm-41 2c1-1 2 0 4 1l-2 1v3c-3-2-4-3-2-5Zm5 2v2-2Zm53 1c0-2 1-2 2 0h-2Z" clip-rule="evenodd" opacity=".2"/><path fill="#D2D3D4" fill-rule="evenodd" d="m236 331-2 1c3 2 5 2 6-2l3 2c3-1 7-1 12 1l7-2c2 0 3 1 4 3l2-2-81 14-2-1-1 2-2-2-6 2-2-1c-3 0-7 2-11 4l-1-2-14 3c-3-2-3-4 0-5l5 1a704 704 0 0 0 31-7l25-4h5c3-3 6-4 10-3 4-2 8-3 12-2Zm-77 1c2-1 4 0 7 1-6 4-12 6-18 7v-3l11-5Z" clip-rule="evenodd" opacity=".2"/><path fill="#D2D3D4" fill-rule="evenodd" d="M352 597c3-2 5-1 8 2v2l9-5 2 2 2-2 4 2 4-1-1 1c2 1 2 2-1 3h4c2-4 4-4 8-1h9l9 2c1 1 2 2 4 1l2 4c1-2 1-2 3-2 3-1 6 0 9 1l2-2c5 2 10 3 16 2l2 2h26l12 2c1-2 3-3 5-3 1 0 2 0 3 2 2-2 3-2 5 0 1-2 2-2 3-2h18l4-2c1 2 2 2 4 1l4 2 15-2 15 1 2-2h8l9-3c3 0 3 0 0 1 1 1 3 0 5-1l2 2 6 1 8-4h8c2 1 4 0 6-1 8 0 17-1 26-4-2-1-2-1 0-2l6-3 9 3h2l3-2 1 1c1-5 2-6 6-2-2 0-2 1-2 3 1-2 2-2 3 0l2-2 14-3c-3 0-4-1-2-2 5-5 10-6 17-1l4-3 1 1c1-2 2-2 4-2l5 4c8-5 16-4 23 1 2-1 3-1 4 2 4-2 9-3 13-3h7l5 2c2-1 5-2 7-1 1 2 2 2 4 0l7 4v4c-2 2-5 2-8 2l-1 1c-7 1-14 2-20 5l-1-1-15 2-1 1 21 7c-9 1-17 3-24 6l14-1c1-1 2 0 1 1l8 2c-3 3-6 6-10 7l-27 9h-1c-1-2-2-2-2 0H187c-2-2-3-2-4 0h-7c-1-1 0-2 1-2h5l-9-3-1 1-4-2-2 3c-2-1-2-2 0-3l-10-4c-2-1-2-1 0-2l-3-1c-1 2-3 2-6 0l1-1c-5-3-11-5-16-6l-13-7c-2-1-3-1-4 1-1-2-1-4 1-5 9 0 19 3 29 8 0-4 1-4 4 0l1-2c4 0 8 2 12 6l11-1-25-9c-2-1-2-2 0-2l5 1 1-2c3-1 6-1 9 2 1-2 2-1 3 1h14l2 1c9 1 19 4 28 7l12-1 14 2v-4c-5 0-9-1-13-3l-1 3c-2-3-5-4-7-4l-14-2-3 1c-5-4-10-5-14-5-3-4-6-5-10-2l-12-5-2 1-10-4 1-1c-4-1-6-3-8-5l-1 1-5-4 1-1 14 2c-2-3-4-4-6-2l-8-10-5-1 2-1 12 2c1 1 3 2 3 4l2-2 9 5 2-2c3 2 7 2 10 1 2 0 4 2 6 4l2-2c2 1 3 0 4-2l6 1c-2 1-1 2 1 3l3-2-3-3-13-4c4-2 8-2 12 2l3-1 5 3 8-1-2 1c1 1 2 1 2 3l7-2 11 3 5-1c10 1 19 4 28 7l2-1c5 2 9 2 13-2l16 6c0-3 2-3 4 1 2-2 5-3 8-3 3 2 7 3 12 2l4 3c1-2 1-2 3-2l5 3 1-2c3 0 5 1 8 3l4-2 5 1-4 2 11 2 2-1Zm-154-17 5 1c0 4 2 5 6 2l2 2c4-1 8 0 12 2l-2 2-7 1-7-4-11-4 2-2Zm492 5c1 1 0 2-2 2l2-2Zm-449 7 7 3-6 2c-1-3-2-3-3-1l-2-2 4-2Zm408 2c1-1 3 0 4 2h-7l-1-1 4-1Zm-400 1h2v3l-2-3Zm11 3c2 0 3 1 3 3l-3-3Zm6 0 2 1c-2 1-2 0-2-1Zm3 1 6 1-3 1-3-2Zm-103 8c0 1 1 2 3 2l-3 1-2-2 2-1Zm353 0c3-1 3 0 0 2v-2Zm-275 6c6 3 14 4 23 5l-17 2c-4-3-8-4-12-2-1-3 0-4 2-2 1-2 2-3 4-3Zm26 6 7 1-6 2c-2-1-3-2-1-3Zm13 4c-3 0-4-1-4-3 2 0 3 1 4 3Z" clip-rule="evenodd" opacity=".1"/></svg>